<mxfile host="localhost" modified="2020-05-19T12:50:11.989Z" agent="5.0 (Windows NT 10.0; Win64; x64) AppleWebKit/537.36 (KHTML, like Gecko) Code/1.45.1 Chrome/78.0.3904.130 Electron/7.2.4 Safari/537.36" etag="r0MGya68OE-2wiqYCpq5" version="13.0.9">
    <diagram id="6hGFLwfOUW9BJ-s0fimq" name="Page-1">
        <mxGraphModel dx="1966" dy="613" grid="1" gridSize="10" guides="1" tooltips="1" connect="1" arrows="1" fold="1" page="1" pageScale="1" pageWidth="827" pageHeight="1169" math="0" shadow="0">
            <root>
                <mxCell id="0"/>
                <mxCell id="1" parent="0"/>
                <mxCell id="2" value="Game" style="whiteSpace=wrap;html=1;align=center;" parent="1" vertex="1">
                    <mxGeometry x="10" y="200" width="100" height="40" as="geometry"/>
                </mxCell>
                <mxCell id="16" value="Certifier" style="whiteSpace=wrap;html=1;align=center;" parent="1" vertex="1">
                    <mxGeometry x="200" y="120" width="100" height="40" as="geometry"/>
                </mxCell>
                <mxCell id="19" value="CacheServer" style="whiteSpace=wrap;html=1;align=center;fontStyle=1" parent="1" vertex="1">
                    <mxGeometry x="200" y="280" width="100" height="40" as="geometry"/>
                </mxCell>
                <mxCell id="22" value="Login Server" style="whiteSpace=wrap;html=1;align=center;" parent="1" vertex="1">
                    <mxGeometry x="200" y="200" width="100" height="40" as="geometry"/>
                </mxCell>
                <mxCell id="25" value="" style="endArrow=classic;startArrow=classic;html=1;" parent="1" source="2" target="16" edge="1">
                    <mxGeometry width="50" height="50" relative="1" as="geometry">
                        <mxPoint x="90" y="200" as="sourcePoint"/>
                        <mxPoint x="82.5" y="380" as="targetPoint"/>
                    </mxGeometry>
                </mxCell>
                <mxCell id="26" value="" style="endArrow=classic;startArrow=classic;html=1;" parent="1" source="2" target="22" edge="1">
                    <mxGeometry width="50" height="50" relative="1" as="geometry">
                        <mxPoint x="102.5" y="220" as="sourcePoint"/>
                        <mxPoint x="152.5" y="440" as="targetPoint"/>
                    </mxGeometry>
                </mxCell>
                <mxCell id="27" value="" style="endArrow=classic;startArrow=classic;html=1;" parent="1" source="19" target="2" edge="1">
                    <mxGeometry width="50" height="50" relative="1" as="geometry">
                        <mxPoint x="132.5" y="370" as="sourcePoint"/>
                        <mxPoint x="90" y="240" as="targetPoint"/>
                    </mxGeometry>
                </mxCell>
                <mxCell id="28" value="CoreServer" style="html=1;" vertex="1" parent="1">
                    <mxGeometry x="392.5" y="275" width="110" height="50" as="geometry"/>
                </mxCell>
                <mxCell id="29" value="WorldServer" style="html=1;" vertex="1" parent="1">
                    <mxGeometry x="392.5" y="360" width="110" height="50" as="geometry"/>
                </mxCell>
                <mxCell id="30" value="DataBaseServer" style="html=1;" vertex="1" parent="1">
                    <mxGeometry x="510" y="195" width="110" height="50" as="geometry"/>
                </mxCell>
                <mxCell id="31" value="AccountServer" style="html=1;" vertex="1" parent="1">
                    <mxGeometry x="510" y="110" width="110" height="50" as="geometry"/>
                </mxCell>
                <mxCell id="32" value="" style="endArrow=classic;startArrow=classic;html=1;" edge="1" parent="1" source="29" target="19">
                    <mxGeometry width="50" height="50" relative="1" as="geometry">
                        <mxPoint x="222.5" y="410" as="sourcePoint"/>
                        <mxPoint x="272.5" y="360" as="targetPoint"/>
                    </mxGeometry>
                </mxCell>
                <mxCell id="33" value="" style="endArrow=classic;startArrow=classic;html=1;" edge="1" parent="1" source="28" target="19">
                    <mxGeometry width="50" height="50" relative="1" as="geometry">
                        <mxPoint x="162.5" y="420" as="sourcePoint"/>
                        <mxPoint x="212.5" y="370" as="targetPoint"/>
                    </mxGeometry>
                </mxCell>
                <mxCell id="35" value="" style="endArrow=classic;startArrow=classic;html=1;" edge="1" parent="1" source="31" target="16">
                    <mxGeometry width="50" height="50" relative="1" as="geometry">
                        <mxPoint x="292.5" y="410" as="sourcePoint"/>
                        <mxPoint x="342.5" y="360" as="targetPoint"/>
                    </mxGeometry>
                </mxCell>
                <mxCell id="36" value="DB" style="shape=datastore;whiteSpace=wrap;html=1;" vertex="1" parent="1">
                    <mxGeometry x="700" y="160" width="60" height="70" as="geometry"/>
                </mxCell>
                <mxCell id="38" value="" style="endArrow=classic;startArrow=classic;html=1;" edge="1" parent="1" source="22" target="28">
                    <mxGeometry width="50" height="50" relative="1" as="geometry">
                        <mxPoint x="382.5" y="250" as="sourcePoint"/>
                        <mxPoint x="432.5" y="200" as="targetPoint"/>
                    </mxGeometry>
                </mxCell>
                <mxCell id="39" value="" style="endArrow=classic;startArrow=classic;html=1;" edge="1" parent="1" source="22" target="30">
                    <mxGeometry width="50" height="50" relative="1" as="geometry">
                        <mxPoint x="542.5" y="470" as="sourcePoint"/>
                        <mxPoint x="592.5" y="420" as="targetPoint"/>
                    </mxGeometry>
                </mxCell>
                <mxCell id="40" value="" style="endArrow=classic;startArrow=classic;html=1;" edge="1" parent="1" source="30" target="31">
                    <mxGeometry width="50" height="50" relative="1" as="geometry">
                        <mxPoint x="102.5" y="440" as="sourcePoint"/>
                        <mxPoint x="152.5" y="390" as="targetPoint"/>
                    </mxGeometry>
                </mxCell>
                <mxCell id="41" value="" style="endArrow=classic;startArrow=classic;html=1;" edge="1" parent="1" source="28" target="30">
                    <mxGeometry width="50" height="50" relative="1" as="geometry">
                        <mxPoint x="142.5" y="480" as="sourcePoint"/>
                        <mxPoint x="192.5" y="430" as="targetPoint"/>
                    </mxGeometry>
                </mxCell>
                <mxCell id="42" value="" style="endArrow=classic;startArrow=classic;html=1;" edge="1" parent="1" source="28" target="29">
                    <mxGeometry width="50" height="50" relative="1" as="geometry">
                        <mxPoint x="162.5" y="470" as="sourcePoint"/>
                        <mxPoint x="212.5" y="420" as="targetPoint"/>
                    </mxGeometry>
                </mxCell>
                <mxCell id="43" value="" style="endArrow=none;dashed=1;html=1;" edge="1" parent="1" source="36" target="31">
                    <mxGeometry width="50" height="50" relative="1" as="geometry">
                        <mxPoint x="220" y="360" as="sourcePoint"/>
                        <mxPoint x="270" y="310" as="targetPoint"/>
                    </mxGeometry>
                </mxCell>
                <mxCell id="44" value="" style="endArrow=none;dashed=1;html=1;" edge="1" parent="1" source="30" target="36">
                    <mxGeometry width="50" height="50" relative="1" as="geometry">
                        <mxPoint x="220" y="390" as="sourcePoint"/>
                        <mxPoint x="270" y="340" as="targetPoint"/>
                    </mxGeometry>
                </mxCell>
                <mxCell id="45" value="" style="endArrow=none;dashed=1;html=1;" edge="1" parent="1" source="36" target="16">
                    <mxGeometry width="50" height="50" relative="1" as="geometry">
                        <mxPoint x="270" y="390" as="sourcePoint"/>
                        <mxPoint x="320" y="340" as="targetPoint"/>
                    </mxGeometry>
                </mxCell>
                <mxCell id="50" value="" style="shape=link;html=1;" edge="1" parent="1">
                    <mxGeometry width="50" height="50" relative="1" as="geometry">
                        <mxPoint x="140" y="440" as="sourcePoint"/>
                        <mxPoint x="140" as="targetPoint"/>
                    </mxGeometry>
                </mxCell>
                <mxCell id="51" value="" style="shape=link;html=1;" edge="1" parent="1">
                    <mxGeometry width="50" height="50" relative="1" as="geometry">
                        <mxPoint x="340" y="440" as="sourcePoint"/>
                        <mxPoint x="340" as="targetPoint"/>
                    </mxGeometry>
                </mxCell>
                <mxCell id="53" value="Local&lt;br&gt;Jeu" style="text;html=1;strokeColor=none;fillColor=none;align=center;verticalAlign=middle;whiteSpace=wrap;rounded=0;" vertex="1" parent="1">
                    <mxGeometry x="10" y="30" width="90" height="40" as="geometry"/>
                </mxCell>
                <mxCell id="54" value="Serveurs&lt;br&gt;Communicante avec le jeu local" style="text;html=1;strokeColor=none;fillColor=none;align=center;verticalAlign=middle;whiteSpace=wrap;rounded=0;" vertex="1" parent="1">
                    <mxGeometry x="180" y="30" width="120" height="50" as="geometry"/>
                </mxCell>
                <mxCell id="55" value="Serveur distant&lt;br&gt;regles / action du jeu" style="text;html=1;strokeColor=none;fillColor=none;align=center;verticalAlign=middle;whiteSpace=wrap;rounded=0;" vertex="1" parent="1">
                    <mxGeometry x="392.5" y="30" width="177" height="40" as="geometry"/>
                </mxCell>
                <mxCell id="56" value="" style="shape=link;html=1;" edge="1" parent="1">
                    <mxGeometry width="50" height="50" relative="1" as="geometry">
                        <mxPoint x="640" y="440" as="sourcePoint"/>
                        <mxPoint x="640" as="targetPoint"/>
                    </mxGeometry>
                </mxCell>
                <mxCell id="57" value="" style="shape=link;html=1;" edge="1" parent="1">
                    <mxGeometry width="50" height="50" relative="1" as="geometry">
                        <mxPoint x="800" y="440" as="sourcePoint"/>
                        <mxPoint x="800" as="targetPoint"/>
                    </mxGeometry>
                </mxCell>
                <mxCell id="59" value="Base de donnees" style="text;html=1;strokeColor=none;fillColor=none;align=center;verticalAlign=middle;whiteSpace=wrap;rounded=0;" vertex="1" parent="1">
                    <mxGeometry x="680" y="30" width="80" height="40" as="geometry"/>
                </mxCell>
                <mxCell id="60" value="" style="shape=link;html=1;" edge="1" parent="1">
                    <mxGeometry width="50" height="50" relative="1" as="geometry">
                        <mxPoint y="440" as="sourcePoint"/>
                        <mxPoint x="800" y="440" as="targetPoint"/>
                    </mxGeometry>
                </mxCell>
            </root>
        </mxGraphModel>
    </diagram>
</mxfile>